<svg baseProfile="full" height="98.59657842665911" version="1.1" width="141.52355190366507"
     xmlns="http://www.w3.org/2000/svg"
     xmlns:xlink="http://www.w3.org/1999/xlink">
  <defs/>
  <rect fill="white" height="98.59657842665911" width="141.52355190366507" x="0" y="0"/>
  <path d="M96.81494068354368,27.96979084610939 m-1.0799239575862885,-1.0799239575862885 l-6.479543447494507,-1.8898668885231018 -6.479543447494507,0.2699809893965721 l-0.2699809893965721,1.8898668885231018 -5.129638910293579,-1.6198858618736267 l-2.6998096704483032,-0.2699809893965721 -7.559467554092407,1.6198858618736267 l0.5399619787931442,1.8898668885231018 1.0799239575862885,-0.2699809893965721 l-2.42982879281044,-1.0799239575862885 -5.6696003675460815,1.3499048352241516 l-1.3499048352241516,3.7797337770462036 1.8898668885231018,0.2699809893965721 l-2.9697906970977783,-1.0799239575862885 -8.639391660690308,1.0799239575862885 l0.5399619787931442,4.319695830345154 4.319695830345154,1.3499048352241516 l-2.6998096704483032,-1.0799239575862885 -3.5097527503967285,2.159847915172577 l2.159847915172577,5.3996193408966064 -1.0799239575862885,1.0799239575862885 l0.2699809893965721,3.7797337770462036 2.159847915172577,2.6998096704483032 l0.0,3.5097527503967285 4.589676558971405,0.5399619787931442 l1.6198858618736267,-0.2699809893965721 0.2699809893965721,1.6198858618736267 l5.3996193408966064,1.3499048352241516 6.209562420845032,-0.2699809893965721 l2.159847915172577,1.0799239575862885 9.449334144592285,-1.6198858618736267 l-0.2699809893965721,0.2699809893965721 1.6198858618736267,1.0799239575862885 l7.289486527442932,-1.6198858618736267 1.6198858618736267,-1.0799239575862885 l2.42982879281044,1.0799239575862885 8.099429607391357,-0.8099429309368134 l2.42982879281044,-5.6696003675460815 5.6696003675460815,0.2699809893965721 l6.209562420845032,-2.42982879281044 -4.049714803695679,-5.129638910293579 l2.9697906970977783,-0.2699809893965721 0.8099429309368134,-4.85965758562088 l-8.369410634040833,-5.3996193408966064 -2.42982879281044,-0.5399619787931442 l0.8099429309368134,-0.8099429309368134 -2.9697906970977783,-2.42982879281044 l-3.2397717237472534,-1.3499048352241516 1.0799239575862885,-1.8898668885231018 l-0.8099429309368134,-0.5399619787931442 -6.209562420845032,-1.0799239575862885 l-2.159847915172577,0.5399619787931442 m-21.868460178375244,11.339200735092163 l-4.85965758562088,-0.2699809893965721 m-6.749524474143982,10.259277820587158 l1.3499048352241516,1.6198858618736267 1.3499048352241516,0.8099429309368134 l1.8898668885231018,0.0 m16.738821268081665,-1.3499048352241516 l2.159847915172577,-1.0799239575862885 m4.049714803695679,-11.339200735092163 l-0.2699809893965721,-0.2699809893965721 m-10.799238681793213,5.129638910293579 l-0.8099429309368134,2.159847915172577 m-2.42982879281044,2.9697906970977783 l-0.5399619787931442,3.2397717237472534 2.42982879281044,2.6998096704483032 m21.868460178375244,1.8898668885231018 l1.3499048352241516,-1.3499048352241516 m5.129638910293579,-7.019505500793457 l0.5399619787931442,-2.6998096704483032 m-7.829448580741882,-8.099429607391357 l-1.8898668885231018,-2.159847915172577 m-8.369410634040833,-3.5097527503967285 l-6.749524474143982,0.0 m0.5399619787931442,5.129638910293579 l3.7797337770462036,3.5097527503967285 m9.17935311794281,0.8099429309368134 l1.8898668885231018,2.42982879281044 m-4.049714803695679,6.749524474143982 l3.7797337770462036,0.8099429309368134 m0.8099429309368134,-4.049714803695679 l-0.8099429309368134,0.8099429309368134 -4.85965758562088,-0.5399619787931442 m-8.369410634040833,-4.589676558971405 l-0.8099429309368134,1.3499048352241516 0.5399619787931442,2.42982879281044 m-0.5399619787931442,-2.6998096704483032 l-7.829448580741882,0.8099429309368134 -2.6998096704483032,1.8898668885231018 l0.0,-0.8099429309368134 m-3.7797337770462036,-4.319695830345154 l-6.209562420845032,0.8099429309368134 0.5399619787931442,4.85965758562088 l2.9697906970977783,1.6198858618736267 m4.319695830345154,0.2699809893965721 l0.2699809893965721,3.7797337770462036 4.319695830345154,2.6998096704483032 l2.159847915172577,0.2699809893965721 12.689106464385986,-5.3996193408966064 l-1.0799239575862885,-5.939581394195557 2.42982879281044,-2.9697906970977783 l2.42982879281044,-4.319695830345154 m4.319695830345154,0.2699809893965721 l4.319695830345154,3.5097527503967285 m3.2397717237472534,0.5399619787931442 l6.209562420845032,2.9697906970977783 m0.2699809893965721,3.7797337770462036 l0.0,1.0799239575862885 -1.8898668885231018,2.6998096704483032 m-16.738821268081665,3.7797337770462036 l-2.6998096704483032,1.8898668885231018 -7.019505500793457,0.0 m-11.609182357788086,-1.8898668885231018 l1.0799239575862885,0.0 m11.339200735092163,-23.4883451461792 l4.049714803695679,0.8099429309368134 m5.3996193408966064,1.6198858618736267 l4.319695830345154,2.159847915172577 4.85965758562088,1.0799239575862885 l2.9697906970977783,1.8898668885231018 m-11.339200735092163,-5.3996193408966064 l-7.289486527442932,1.3499048352241516 m-8.099429607391357,-1.0799239575862885 l-6.209562420845032,1.8898668885231018 m-5.939581394195557,0.2699809893965721 l-0.8099429309368134,0.8099429309368134 m-2.6998096704483032,13.229068517684937 l0.5399619787931442,2.159847915172577 m-1.0799239575862885,4.319695830345154 l2.159847915172577,3.7797337770462036 2.6998096704483032,1.3499048352241516 m1.8898668885231018,0.2699809893965721 l0.5399619787931442,9.71931517124176 -1.3499048352241516,1.3499048352241516 l-1.6198858618736267,0.2699809893965721 -0.2699809893965721,1.6198858618736267 l2.6998096704483032,0.8099429309368134 1.8898668885231018,-0.5399619787931442 l0.8099429309368134,-2.6998096704483032 0.0,-12.419124841690063 m31.31779432296753,-0.2699809893965721 l0.5399619787931442,10.259277820587158 -0.5399619787931442,1.0799239575862885 l-3.2397717237472534,1.6198858618736267 -0.2699809893965721,1.3499048352241516 l1.3499048352241516,1.0799239575862885 3.7797337770462036,0.0 l0.5399619787931442,-0.2699809893965721 0.8099429309368134,-2.159847915172577 l-0.2699809893965721,-13.229068517684937 m-4.319695830345154,0.8099429309368134 l0.8099429309368134,2.9697906970977783 0.0,6.209562420845032 l-1.8898668885231018,0.8099429309368134 -2.159847915172577,1.6198858618736267 l0.0,0.5399619787931442 0.8099429309368134,0.8099429309368134 l0.5399619787931442,0.0 m-32.39771842956543,-11.879162788391113 l1.0799239575862885,9.17935311794281 -0.8099429309368134,0.8099429309368134 l-2.6998096704483032,0.8099429309368134 -0.2699809893965721,1.3499048352241516 l1.3499048352241516,0.8099429309368134 m-14.308991432189941,-32.937679290771484 l-3.2397717237472534,-2.42982879281044 -2.159847915172577,-4.319695830345154 l-1.6198858618736267,-1.8898668885231018 -1.0799239575862885,-1.0799239575862885 l-2.159847915172577,-0.5399619787931442 -2.159847915172577,1.3499048352241516 l-0.5399619787931442,0.8099429309368134 -1.8898668885231018,4.589676558971405 l-2.9697906970977783,5.3996193408966064 -5.129638910293579,7.289486527442932 l0.0,1.6198858618736267 0.5399619787931442,1.6198858618736267 l1.0799239575862885,0.5399619787931442 3.7797337770462036,0.2699809893965721 l1.6198858618736267,-0.8099429309368134 2.6998096704483032,-2.42982879281044 l1.3499048352241516,-2.6998096704483032 1.3499048352241516,-1.0799239575862885 l5.939581394195557,0.8099429309368134 5.3996193408966064,1.8898668885231018 l0.5399619787931442,0.0 0.5399619787931442,-1.0799239575862885 m-11.339200735092163,-12.149144411087036 l-0.5399619787931442,0.0 -0.2699809893965721,1.0799239575862885 l0.0,4.85965758562088 1.8898668885231018,3.5097527503967285 l0.5399619787931442,0.0 1.3499048352241516,-1.6198858618736267 l0.8099429309368134,-3.2397717237472534 0.0,-3.5097527503967285 l-1.0799239575862885,-2.159847915172577 m-5.939581394195557,4.589676558971405 l-0.5399619787931442,0.0 0.2699809893965721,0.8099429309368134 l0.0,-0.5399619787931442 -1.6198858618736267,-1.0799239575862885 l0.8099429309368134,1.0799239575862885 0.8099429309368134,-0.2699809893965721 l0.0,-0.5399619787931442 -0.5399619787931442,0.0 l0.2699809893965721,0.5399619787931442 -0.2699809893965721,-0.5399619787931442 l-0.2699809893965721,0.2699809893965721 0.2699809893965721,0.5399619787931442 l0.5399619787931442,0.0 0.0,-0.8099429309368134 l-0.8099429309368134,-0.2699809893965721 -0.2699809893965721,0.8099429309368134 l0.5399619787931442,0.0 0.0,-0.5399619787931442 l-0.2699809893965721,0.2699809893965721 0.0,0.8099429309368134 l0.0,-1.0799239575862885 -0.2699809893965721,1.0799239575862885 l0.8099429309368134,0.0 -0.5399619787931442,-1.0799239575862885 l-0.2699809893965721,1.0799239575862885 " fill="none" stroke="black" stroke-width="1"/>
</svg>